ffmpeg version 3.4.8-0ubuntu0.2 Copyright (c) 2000-2020 the FFmpeg developers
  built with gcc 7 (Ubuntu 7.5.0-3ubuntu1~18.04)
  configuration: --prefix=/usr --extra-version=0ubuntu0.2 --toolchain=hardened --libdir=/usr/lib/x86_64-linux-gnu --incdir=/usr/include/x86_64-linux-gnu --enable-gpl --disable-stripping --enable-avresample --enable-avisynth --enable-gnutls --enable-ladspa --enable-libass --enable-libbluray --enable-libbs2b --enable-libcaca --enable-libcdio --enable-libflite --enable-libfontconfig --enable-libfreetype --enable-libfribidi --enable-libgme --enable-libgsm --enable-libmp3lame --enable-libmysofa --enable-libopenjpeg --enable-libopenmpt --enable-libopus --enable-libpulse --enable-librubberband --enable-librsvg --enable-libshine --enable-libsnappy --enable-libsoxr --enable-libspeex --enable-libssh --enable-libtheora --enable-libtwolame --enable-libvorbis --enable-libvpx --enable-libwavpack --enable-libwebp --enable-libx265 --enable-libxml2 --enable-libxvid --enable-libzmq --enable-libzvbi --enable-omx --enable-openal --enable-opengl --enable-sdl2 --enable-libdc1394 --enable-libdrm --enable-libiec61883 --enable-chromaprint --enable-frei0r --enable-libopencv --enable-libx264 --enable-shared
  libavutil      55. 78.100 / 55. 78.100
  libavcodec     57.107.100 / 57.107.100
  libavformat    57. 83.100 / 57. 83.100
  libavdevice    57. 10.100 / 57. 10.100
  libavfilter     6.107.100 /  6.107.100
  libavresample   3.  7.  0 /  3.  7.  0
  libswscale      4.  8.100 /  4.  8.100
  libswresample   2.  9.100 /  2.  9.100
  libpostproc    54.  7.100 / 54.  7.100
[rawvideo @ 0x55ac3ee0ca20] Estimating duration from bitrate, this may be inaccurate
Input #0, rawvideo, from '../../SVC-Encoder-20220109T061506Z-001/SVC-Encoder/Dataset/RollerCoaster/ERP_8x8/tile_yuv/Tile_50_480x240.yuv':
  Duration: 00:00:10.00, start: 0.000000, bitrate: 41472 kb/s
    Stream #0:0: Video: rawvideo (I420 / 0x30323449), yuv420p, 480x240, 41472 kb/s, 30 tbr, 30 tbn, 30 tbc
Stream mapping:
  Stream #0:0 -> #0:0 (rawvideo (native) -> h264 (libx264))
Press [q] to stop, [?] for help
[libx264 @ 0x55ac3ee19c60] using cpu capabilities: MMX2 SSE2Fast LZCNT SSSE3 SSE4.2 AVX
[libx264 @ 0x55ac3ee19c60] profile High, level 2.1
Output #0, rawvideo, to 'RollerCoaster_Tile_50_480x240_x264_QP_24.h264':
  Metadata:
    encoder         : Lavf57.83.100
    Stream #0:0: Video: h264 (libx264), yuv420p, 480x240, q=-1--1, 30 fps, 30 tbn, 30 tbc
    Metadata:
      encoder         : Lavc57.107.100 libx264
    Side data:
      cpb: bitrate max/min/avg: 0/0/0 buffer size: 0 vbv_delay: -1
frame=  193 fps=0.0 q=30.0 PSNR=Y:nan U:nan V:nan *:nan size=      60kB time=00:00:05.00 bitrate=  98.2kbits/s speed=9.98x    frame=  300 fps=0.0 q=30.0 LPSNR=Y:inf U:inf V:inf *:inf size=     112kB time=00:00:09.93 bitrate=  92.6kbits/s speed=12.2x    
video:112kB audio:0kB subtitle:0kB other streams:0kB global headers:0kB muxing overhead: 0.000000%
[libx264 @ 0x55ac3ee19c60] frame I:2     Avg QP:22.86  size:  7296  PSNR Mean Y:49.21 U:48.73 V:48.22 Avg:48.95 Global:48.92
[libx264 @ 0x55ac3ee19c60] frame P:76    Avg QP:23.12  size:   841  PSNR Mean Y:47.50 U:48.54 V:48.04 Avg:47.74 Global:47.72
[libx264 @ 0x55ac3ee19c60] frame B:222   Avg QP:29.41  size:   164  PSNR Mean Y:47.01 U:48.37 V:47.79 Avg:47.33 Global:47.31
[libx264 @ 0x55ac3ee19c60] consecutive B-frames:  1.0%  0.7%  1.0% 97.3%
[libx264 @ 0x55ac3ee19c60] mb I  I16..4: 53.4% 21.3% 25.2%
[libx264 @ 0x55ac3ee19c60] mb P  I16..4:  3.3%  1.4%  0.1%  P16..4: 33.9%  9.2%  1.6%  0.0%  0.0%    skip:50.5%
[libx264 @ 0x55ac3ee19c60] mb B  I16..4:  0.0%  0.0%  0.0%  B16..8: 25.0%  0.9%  0.0%  direct: 0.0%  skip:74.1%  L0:45.2% L1:53.4% BI: 1.4%
[libx264 @ 0x55ac3ee19c60] 8x8 transform intra:26.7% inter:73.8%
[libx264 @ 0x55ac3ee19c60] coded y,uvDC,uvAC intra: 14.8% 39.5% 15.2% inter: 2.7% 5.0% 0.2%
[libx264 @ 0x55ac3ee19c60] i16 v,h,dc,p: 45% 37% 12%  5%
[libx264 @ 0x55ac3ee19c60] i8 v,h,dc,ddl,ddr,vr,hd,vl,hu:  3% 17% 72%  1%  1%  0%  2%  0%  4%
[libx264 @ 0x55ac3ee19c60] i4 v,h,dc,ddl,ddr,vr,hd,vl,hu:  8% 56% 15%  2%  1%  1%  5%  1% 10%
[libx264 @ 0x55ac3ee19c60] i8c dc,h,v,p: 48% 39% 11%  2%
[libx264 @ 0x55ac3ee19c60] Weighted P-Frames: Y:0.0% UV:0.0%
[libx264 @ 0x55ac3ee19c60] ref P L0: 58.0%  9.3% 24.0%  8.6%
[libx264 @ 0x55ac3ee19c60] ref B L0: 71.6% 22.5%  5.9%
[libx264 @ 0x55ac3ee19c60] ref B L1: 83.1% 16.9%
[libx264 @ 0x55ac3ee19c60] PSNR Mean Y:47.151 U:48.418 V:47.856 Avg:47.445 Global:47.419 kb/s:91.98
